<?xml version="1.0" encoding="UTF-8"?>
<svg xmlns="http://www.w3.org/2000/svg" xmlns:xlink="http://www.w3.org/1999/xlink" width="595.2756pt" height="195.5906pt" viewBox="0 0 595.2756 195.5906" version="1.1">
<g id="surface1">
<path style=" stroke:none;fill-rule:evenodd;fill:rgb(0%,0%,0%);fill-opacity:1;" d="M 488.589844 125.832031 C 489.683594 126.773438 500.40625 131.25 503.015625 132.296875 L 517.25 138.652344 C 525.324219 142.640625 524.566406 143.382813 531.152344 138.707031 C 533.839844 136.796875 534.441406 136.171875 536.730469 133.929688 L 539.117188 131.160156 C 545.488281 122.929688 545.515625 108.433594 539.039063 99.109375 C 538.796875 98.761719 538.6875 98.609375 538.414063 98.289063 C 537.003906 96.628906 535.75 95.121094 534.035156 93.761719 C 527.902344 88.882813 524.488281 87.785156 517.539063 84.46875 C 507.863281 79.847656 498.472656 76.296875 488.796875 71.757813 L 481.660156 68.59375 C 478.023438 66.726563 470.820313 64.6875 468.785156 60.96875 C 468.046875 59.621094 468.75 58.28125 469.300781 57.355469 C 470.199219 55.84375 472.132813 54.9375 473.648438 54.03125 C 473.71875 53.988281 473.933594 53.867188 474.003906 53.824219 L 474.527344 53.496094 C 479.015625 50.667969 488.019531 45.734375 491.480469 43.25 C 492.917969 42.214844 494.65625 41.15625 495.75 39.792969 C 497.179688 38.007813 497.652344 38.367188 499.460938 35.738281 C 503.636719 29.671875 504.328125 21.726563 501.511719 14.824219 C 500.640625 12.695313 499.707031 11.089844 498.28125 9.46875 L 497.507813 8.5 C 496.304688 6.898438 493.519531 4.734375 491.417969 4.011719 L 464.992188 20.136719 C 464.632813 20.359375 464.78125 20.28125 464.472656 20.46875 C 463.46875 21.078125 462.835938 21.414063 461.796875 22.089844 L 453.339844 27.300781 C 453.289063 27.335938 453.21875 27.382813 453.167969 27.414063 L 448.476563 30.21875 C 447.617188 30.714844 447.714844 30.640625 447.070313 31.058594 L 438.054688 36.964844 C 437.210938 37.585938 437.488281 37.246094 436.792969 38 C 436.105469 38.746094 436.539063 38.351563 435.742188 38.957031 C 433.988281 40.289063 432.882813 41.996094 431.578125 43.707031 L 430.757813 44.886719 C 430.378906 45.460938 430.300781 45.578125 430.011719 46.148438 C 424.984375 55.972656 424.71875 67.429688 430.972656 76.699219 C 432.148438 78.4375 433.792969 79.5625 435.132813 81.164063 C 436.96875 83.355469 440.078125 84.902344 442.652344 86.527344 C 447.402344 89.523438 455.171875 92.277344 460.300781 94.644531 L 490.089844 107.757813 C 493.488281 109.101563 503.945313 112.742188 501.246094 117.09375 C 500.484375 118.320313 499.15625 119.410156 497.871094 120.191406 C 495.558594 121.59375 489.675781 124.457031 488.589844 125.832031 "/>
<path style=" stroke:none;fill-rule:evenodd;fill:rgb(0%,0%,0%);fill-opacity:1;" d="M 536.507813 191.828125 C 536.824219 191.152344 537.257813 190.632813 537.640625 190.027344 C 540.382813 185.691406 541.96875 180.515625 542.277344 175.320313 C 542.769531 167.121094 540.25 161.671875 536.003906 156.472656 C 535.511719 155.867188 535.308594 155.46875 534.738281 154.855469 L 525.234375 148.015625 C 523.9375 147.394531 522.523438 146.65625 521.386719 146.148438 L 487.023438 131.003906 C 483.429688 129.492188 472.027344 125.101563 468.640625 122 C 465.261719 118.910156 468.871094 116.644531 470.304688 115.597656 C 473.597656 113.1875 477.121094 111.960938 480.523438 109.488281 C 479.851563 108.550781 470.054688 104.425781 468.496094 103.792969 C 464.464844 102.164063 460.363281 100.222656 456.363281 98.46875 L 444.011719 93.070313 C 442.941406 92.816406 443.0625 93.105469 442.558594 93.441406 C 441.714844 94.003906 443.15625 93.148438 441.859375 93.910156 C 441.808594 93.9375 441.320313 94.1875 441.078125 94.332031 L 436.171875 97.714844 C 436.125 97.753906 436.0625 97.808594 436.015625 97.84375 L 434.65625 98.808594 C 433.984375 99.265625 434.074219 99.226563 433.652344 99.785156 C 432.742188 100.988281 432.503906 101.121094 431.386719 102.117188 C 429.605469 103.714844 427.289063 108.226563 426.585938 110.5625 C 423.972656 119.277344 424.707031 130.257813 430.640625 137.109375 C 433.996094 140.984375 436.667969 143.253906 441.375 145.875 C 445.328125 148.082031 452.1875 151.242188 456.519531 153.042969 L 465.445313 156.996094 C 472.910156 160.675781 482.15625 164.230469 489.886719 167.75 C 492.011719 168.71875 493.894531 169.664063 495.976563 170.503906 C 503.417969 173.5 512.628906 177.945313 519.996094 181.675781 L 524.355469 184.152344 C 524.667969 184.332031 525.085938 184.539063 525.625 184.886719 C 527.414063 186.035156 529.324219 187.160156 531.050781 188.332031 L 532.390625 189.261719 C 533.734375 190.214844 535.1875 191.46875 536.507813 191.828125 "/>
<path style=" stroke:none;fill-rule:evenodd;fill:rgb(0%,0%,0%);fill-opacity:1;" d="M 421.757813 167.914063 C 422.230469 172.261719 423.261719 176.65625 425.855469 180.195313 C 428.460938 183.75 427.339844 181.8125 428.898438 183.484375 C 429.660156 184.308594 429.519531 184.464844 430.394531 185.140625 C 435.453125 189.046875 442.304688 191.386719 450.183594 189.324219 C 456.796875 187.59375 468.390625 179.3125 474.523438 175.574219 L 480.277344 171.917969 C 482.519531 170.628906 481.699219 171.105469 482.132813 170.203125 C 480.925781 169.992188 460.921875 160.753906 458.566406 159.757813 L 446.863281 154.566406 C 444.816406 153.710938 444.582031 154.605469 443.03125 155.4375 L 437.613281 158.675781 C 437.128906 158.949219 436.277344 159.417969 435.996094 159.585938 Z M 421.757813 167.914063 "/>
<path style=" stroke:none;fill-rule:evenodd;fill:rgb(0%,0%,0%);fill-opacity:1;" d="M 486.878906 65.1875 L 521.640625 80.785156 C 523.972656 81.84375 523.539063 82.085938 527.195313 79.867188 C 527.992188 79.382813 528.980469 78.875 529.765625 78.398438 C 530.65625 77.851563 531.375 77.335938 531.996094 76.902344 L 533.132813 76.015625 C 533.726563 75.460938 533.488281 75.589844 534.171875 75.078125 C 535.363281 74.1875 536.050781 73.230469 537 72.140625 C 537.1875 71.921875 537.613281 71.3125 537.84375 70.972656 C 541.433594 65.75 542.246094 58.332031 540.636719 52.070313 C 539.78125 48.722656 537.070313 44.917969 534.574219 42.617188 C 533.519531 41.644531 533.78125 41.609375 532.464844 40.707031 C 531.710938 40.191406 530.960938 39.804688 530.027344 39.199219 C 528.683594 39.589844 529.4375 39.261719 528.320313 40.019531 C 527.617188 40.496094 527.832031 40.363281 527.074219 40.75 C 526.125 41.234375 525.351563 41.800781 524.390625 42.34375 L 503.691406 54.824219 C 503.414063 54.992188 503.3125 55.070313 502.996094 55.265625 L 489.558594 63.292969 C 489.199219 63.507813 488.535156 63.910156 488.320313 64.039063 Z M 486.878906 65.1875 "/>
<path style=" stroke:none;fill-rule:evenodd;fill:rgb(0%,0%,0%);fill-opacity:1;" d="M 86.039063 73.015625 L 78.582031 72.964844 C 78.023438 76.847656 79.441406 81.421875 81.488281 84.398438 C 82.207031 85.441406 81.921875 85.253906 82.765625 86.003906 C 85.164063 88.132813 84.097656 88.074219 87.722656 89.976563 C 88.429688 90.347656 88.894531 90.582031 89.640625 90.925781 C 96.878906 94.257813 107.53125 93.925781 114.777344 90.441406 C 118.367188 88.714844 118.390625 87.835938 119.820313 86.558594 C 121.089844 85.417969 120.371094 86.246094 121.242188 84.800781 C 122.929688 82.007813 124.082031 79.316406 123.753906 75.472656 C 123.542969 73.015625 123.050781 70.460938 121.785156 68.480469 C 119.753906 65.304688 118.050781 63.941406 113.199219 62.074219 C 107.335938 59.820313 99.996094 59.085938 94.429688 57.132813 C 85.417969 53.96875 87.753906 46.292969 91.863281 43.46875 C 94.214844 41.855469 97.921875 41.257813 101.601563 41.371094 C 106.460938 41.519531 110.789063 43.878906 112.492188 47.945313 C 113.09375 49.386719 113.546875 50.996094 113.671875 52.753906 L 121.394531 52.65625 C 121.488281 48.644531 120.242188 44.351563 117.996094 41.359375 L 115.105469 38.496094 C 110.015625 33.933594 97.609375 33.222656 90.828125 36.066406 C 85.589844 38.265625 86.910156 37.96875 83.8125 40.851563 C 81.152344 43.328125 78.300781 50.664063 81.40625 56.980469 C 81.769531 57.722656 82.011719 58.351563 82.453125 58.847656 C 82.9375 59.386719 82.605469 58.957031 83.242188 59.5 C 84.996094 60.988281 83.25 60.570313 87.757813 62.789063 C 96.4375 67.066406 108.46875 66.300781 113.769531 71.90625 C 115.746094 73.996094 116.40625 77.953125 114.507813 81.003906 C 114.335938 81.28125 113.460938 82.519531 113.335938 82.65625 C 112.246094 83.824219 109.480469 85.144531 107.519531 85.609375 C 106.820313 85.773438 105.792969 86.027344 105.089844 86.132813 C 103.4375 86.375 98.636719 86.046875 97.03125 85.679688 C 90.054688 84.089844 86.617188 80.117188 86.039063 73.015625 "/>
<path style=" stroke:none;fill-rule:evenodd;fill:rgb(0%,0%,0%);fill-opacity:1;" d="M 93.207031 148.550781 C 92.949219 151.796875 91.765625 156.46875 89.8125 158.722656 L 86.484375 161.871094 C 86.253906 162.039063 86.09375 162.175781 85.851563 162.324219 L 85.480469 162.527344 C 81.554688 164.679688 78.070313 164.8125 73.742188 164.136719 C 71.335938 163.761719 68.84375 162.667969 66.847656 161.105469 L 65.128906 159.425781 C 58.3125 153.449219 57.515625 137.808594 61.917969 128.984375 C 63.449219 125.921875 64.269531 125.550781 65.71875 124 C 71.621094 117.683594 85.472656 118.035156 90.382813 125.554688 C 94.929688 132.519531 88.984375 131.449219 100.90625 131.449219 C 100.199219 125.832031 98.378906 122.027344 94.566406 118.515625 C 92.695313 116.789063 91.269531 115.847656 88.855469 114.761719 C 86.632813 113.757813 83.714844 113.078125 81.285156 112.78125 C 77.929688 112.375 73.386719 112.628906 70.210938 113.5 C 66.710938 114.460938 64.394531 115.527344 61.582031 117.539063 C 60.964844 117.980469 60.34375 118.414063 59.78125 118.914063 C 51.195313 126.503906 48.753906 143.839844 53.046875 155.125 C 53.863281 157.269531 55.097656 159.972656 56.207031 161.457031 C 57.671875 163.414063 58.855469 164.390625 59.054688 164.644531 C 60.054688 165.925781 59.894531 165.769531 61.628906 166.949219 C 68.339844 171.519531 77.785156 172.703125 85.585938 170.253906 C 88.996094 169.179688 93.007813 167.09375 95.171875 164.285156 C 95.890625 163.351563 95.921875 163.675781 96.644531 162.613281 C 97.503906 161.34375 98.003906 160.265625 98.878906 158.496094 C 100.496094 155.222656 100.96875 152.15625 101.449219 148.414063 Z M 93.207031 148.550781 "/>
<path style=" stroke:none;fill-rule:evenodd;fill:rgb(0%,0%,0%);fill-opacity:1;" d="M 358.929688 150.988281 C 358.929688 146.789063 359.28125 142.570313 361.609375 139.273438 C 362.339844 138.238281 362.378906 138.535156 363.164063 137.707031 C 367.136719 133.527344 374.695313 134.472656 377.964844 137.191406 C 379.148438 138.175781 381.191406 141.167969 381.820313 143.253906 C 383.273438 148.070313 383.292969 154.871094 380.605469 158.90625 C 378.195313 162.523438 375.5625 164.542969 370.722656 164.527344 C 363.328125 164.507813 358.929688 157.566406 358.929688 150.988281 Z M 382.480469 134.183594 C 381.628906 129.582031 367.144531 125.09375 358.820313 131.632813 C 355.425781 134.296875 357.695313 132.195313 355.316406 135.035156 C 350.117188 141.246094 349.792969 154.144531 353.746094 161.648438 C 354.222656 162.554688 354.597656 163.160156 355.207031 163.914063 C 358.175781 167.59375 355.429688 164.894531 358.9375 167.664063 C 365.722656 173.027344 379.203125 171.839844 382.5 165.515625 L 382.597656 169.867188 C 384.4375 170.527344 387.679688 170.132813 389.804688 170.050781 C 390.167969 166.003906 389.851563 160.363281 389.851563 156.136719 C 389.851563 150.605469 389.539063 116.316406 390.015625 113.917969 L 382.496094 113.878906 Z M 382.480469 134.183594 "/>
<path style=" stroke:none;fill-rule:evenodd;fill:rgb(0%,0%,0%);fill-opacity:1;" d="M 269.597656 71.480469 C 269.597656 75.367188 268.472656 79.230469 266.5625 82.035156 C 266.53125 82.085938 266.484375 82.160156 266.449219 82.207031 C 266.101563 82.683594 266.308594 82.429688 266.0625 82.679688 L 263.261719 84.953125 C 258.070313 88.035156 251.015625 85.65625 249 82.527344 C 248.828125 82.257813 248.710938 82.046875 248.566406 81.824219 L 247.988281 80.988281 C 244.269531 75.566406 244.851563 64.648438 249.550781 59.855469 C 250.910156 58.46875 252.136719 57.597656 254.390625 57.054688 C 262.890625 55.007813 269.597656 61.449219 269.597656 71.480469 Z M 269.195313 55.75 C 269.34375 54.863281 266.800781 53.300781 266.042969 52.84375 C 258.035156 48.003906 247.402344 50.664063 243.292969 55.308594 C 239.484375 59.613281 237.722656 65.84375 237.773438 71.765625 C 237.816406 76.667969 239.328125 82.058594 242.035156 86.035156 C 243.421875 88.070313 245.671875 89.996094 248.007813 91.011719 C 261.121094 96.695313 269.175781 88.6875 269.222656 87.457031 L 269.222656 92.085938 L 276.609375 91.886719 L 276.464844 35.859375 L 269.398438 36.015625 C 268.832031 38.667969 269.5 51.371094 269.195313 55.75 "/>
<path style=" stroke:none;fill-rule:evenodd;fill:rgb(0%,0%,0%);fill-opacity:1;" d="M 368.5625 56.84375 C 383.195313 54.835938 385.234375 73.457031 380.628906 80.828125 C 379.601563 82.464844 379.429688 82.3125 378.71875 83.175781 C 375.03125 87.640625 366.871094 87.144531 362.871094 83.332031 C 360.929688 81.480469 359.109375 76.609375 358.945313 73.933594 C 358.53125 67.339844 359.628906 62.816406 363.863281 58.917969 C 364.800781 58.046875 366.828125 57.082031 368.5625 56.84375 Z M 382.449219 55.78125 C 382.605469 54.765625 379.664063 53.03125 378.753906 52.519531 C 376.628906 51.316406 375.796875 51.039063 373.25 50.5 C 368.972656 49.59375 364.394531 50.460938 360.945313 52.207031 C 359.75 52.8125 357.34375 54.378906 356.550781 55.300781 C 349.625 63.335938 349.316406 78.273438 355.335938 85.992188 C 355.792969 86.574219 355.710938 86.371094 356.21875 87.109375 C 360.550781 93.398438 374.410156 95.007813 380.265625 89.910156 C 380.585938 89.632813 380.871094 89.347656 381.15625 89.0625 C 381.574219 88.644531 382.480469 87.742188 382.480469 87.445313 L 382.636719 91.929688 L 389.855469 91.898438 L 389.722656 35.859375 L 382.515625 36.015625 Z M 382.449219 55.78125 "/>
<path style=" stroke:none;fill-rule:evenodd;fill:rgb(0%,0%,0%);fill-opacity:1;" d="M 179.507813 71.417969 C 179.425781 75.636719 180.4375 79.222656 177.53125 82.195313 C 177.132813 82.597656 176.917969 82.855469 176.527344 83.25 L 175.28125 84.222656 C 172.046875 86.085938 165.246094 87.554688 162.03125 84.519531 C 158.136719 80.847656 160.894531 75.839844 165.441406 74.488281 C 169.933594 73.148438 175.378906 73.613281 179.507813 71.417969 Z M 161.320313 63.71875 C 162.027344 61.832031 161.226563 61.28125 163.667969 58.910156 C 166.484375 56.175781 172.460938 55.953125 176.066406 57.421875 C 176.765625 57.707031 177.796875 58.195313 178.300781 58.820313 C 179.359375 60.144531 180.132813 62.777344 179.183594 64.753906 C 176.585938 70.15625 153.417969 64.597656 152.511719 80.050781 C 152.238281 84.710938 153.636719 88.242188 157.339844 90.707031 C 160.644531 92.902344 166.019531 93.335938 170.234375 92.476563 C 175.878906 91.328125 176.859375 89.96875 179.957031 87.207031 C 180.625 90.414063 180.675781 91.34375 183.402344 92.429688 C 185.71875 93.355469 189.082031 92.769531 190.804688 91.78125 C 191.117188 91.417969 191.078125 89.351563 191.074219 88.929688 C 191.058594 87.878906 191.0625 86.832031 191.0625 85.78125 C 189.320313 86.214844 187.5625 86.699219 187.101563 85.058594 C 186.355469 82.402344 187.320313 61.511719 186.628906 58.34375 C 184.410156 48.191406 169.152344 49.207031 163.003906 51.355469 C 156.964844 53.464844 154.511719 57.566406 153.980469 64.265625 L 161.078125 64.242188 Z M 161.320313 63.71875 "/>
<path style=" stroke:none;fill-rule:evenodd;fill:rgb(0%,0%,0%);fill-opacity:1;" d="M 175.363281 149.730469 C 175.585938 151.820313 175.671875 156.046875 174.976563 157.828125 C 174.566406 158.882813 174.046875 159.871094 173.40625 160.480469 C 172.78125 161.074219 171.894531 161.964844 171.179688 162.484375 C 168.007813 164.796875 160.621094 165.332031 157.847656 162.785156 C 153.976563 159.226563 156.945313 153.976563 161.066406 152.765625 C 165.953125 151.332031 171.21875 151.75 175.363281 149.730469 Z M 157.117188 142.425781 C 157.824219 139.425781 157.625 138.929688 159.46875 137.078125 C 163.894531 132.640625 178.152344 134.546875 175.101563 142.746094 C 173.441406 147.203125 161.800781 144.242188 152.1875 150.375 C 150.960938 151.15625 151.167969 151.101563 150.332031 152.292969 C 147.238281 156.703125 147.234375 165.253906 153 168.824219 C 159.039063 172.558594 169.71875 171.160156 173.917969 167.269531 C 174.6875 166.558594 174.832031 166.160156 175.75 165.488281 C 176.445313 168.394531 176.675781 169.882813 179.21875 170.695313 C 181.152344 171.316406 184.96875 171.160156 186.535156 169.941406 C 187.121094 168.480469 186.523438 165.882813 186.941406 164.085938 C 185.152344 164.1875 185.300781 164.960938 183.390625 164.230469 C 182.234375 163.472656 182.773438 146.761719 182.773438 144.410156 C 182.773438 140.933594 183.152344 133.988281 179.667969 131.539063 C 179.28125 131.265625 179.070313 131.183594 178.761719 130.976563 C 170.625 125.519531 148.761719 127.382813 150.03125 142.371094 Z M 157.117188 142.425781 "/>
<path style=" stroke:none;fill-rule:evenodd;fill:rgb(0%,0%,0%);fill-opacity:1;" d="M 310.714844 71.753906 C 310.8125 75.054688 311.355469 81.03125 308.011719 83.394531 C 304.039063 86.203125 296.902344 87.890625 293.214844 84.648438 C 290.628906 82.371094 290.421875 76.503906 296.78125 74.566406 C 301.472656 73.140625 306.0625 73.5625 310.714844 71.753906 Z M 292.5625 64.25 C 293.347656 59.570313 295.441406 57.164063 300.421875 56.851563 C 303.996094 56.628906 309.800781 56.875 310.707031 61.355469 C 310.722656 61.429688 310.734375 61.507813 310.742188 61.585938 L 310.78125 62.347656 C 310.785156 62.542969 310.777344 62.984375 310.769531 63.179688 C 310.742188 63.800781 310.765625 64.207031 310.476563 64.761719 C 310.09375 65.5 309.128906 66.125 308.511719 66.414063 C 304.332031 68.378906 297.304688 67.515625 290.007813 70.800781 L 287.5625 72.394531 C 285.035156 74.664063 283.960938 76.273438 283.773438 80.339844 C 283.613281 83.800781 284.285156 86.921875 286.621094 89.222656 C 291.675781 94.191406 301.257813 94 307.296875 90.476563 C 309.125 89.410156 310.933594 87.617188 311.519531 87.433594 L 311.414063 87.914063 C 311.410156 87.984375 311.394531 88.074219 311.390625 88.15625 C 311.390625 88.238281 311.390625 88.320313 311.394531 88.40625 C 311.402344 88.550781 311.546875 89.171875 311.605469 89.359375 C 313.15625 94.40625 318.921875 92.886719 322.304688 91.992188 L 322.339844 85.847656 C 319.996094 86.390625 318.097656 87.707031 318.054688 82.636719 C 318.039063 80.921875 318.058594 79.199219 318.058594 77.484375 C 318.058594 73.957031 318.054688 70.429688 318.054688 66.902344 C 318.054688 63.414063 318.53125 58.183594 316.59375 55.277344 L 313.972656 52.691406 C 308.359375 49.199219 298.386719 49.636719 292.503906 52.175781 C 292.285156 52.269531 289.308594 53.5 287.777344 56.0625 C 286.21875 58.671875 285.34375 60.410156 285.285156 64.042969 Z M 292.5625 64.25 "/>
<path style=" stroke:none;fill-rule:evenodd;fill:rgb(0%,0%,0%);fill-opacity:1;" d="M 249.40625 145.386719 C 248.941406 140.9375 255.183594 131.769531 264.953125 135.839844 L 268.78125 138.828125 C 270.359375 140.359375 271.417969 143.59375 271.566406 145.65625 C 267.660156 144.871094 253.503906 146.054688 249.40625 145.386719 Z M 278.589844 157.28125 C 268.128906 157.28125 273.136719 156.785156 268.667969 161.878906 C 266.949219 163.835938 263.402344 164.652344 260.898438 164.542969 C 259.050781 164.457031 257.226563 163.972656 255.71875 163.277344 C 255.515625 163.183594 254.582031 162.761719 254.542969 162.742188 L 253.851563 162.316406 C 251.316406 160.199219 248.964844 156.261719 249.425781 152.054688 L 279.398438 152.070313 C 279.402344 145.457031 278.472656 140.886719 275.578125 136.046875 C 274.773438 134.703125 273.371094 132.90625 272.09375 132.050781 C 269.871094 130.558594 268.171875 128.929688 263.8125 128.492188 C 259.859375 128.097656 255.210938 128.5 251.648438 130.539063 C 250.300781 131.3125 247.882813 132.9375 246.957031 134.175781 C 244.234375 137.8125 243.027344 139.058594 241.957031 144.734375 C 240.777344 150.988281 242.300781 159.78125 245.890625 164.257813 C 246.8125 165.410156 247.171875 165.972656 248.273438 166.773438 C 249.871094 167.933594 248.863281 167.503906 251.160156 168.773438 C 252.128906 169.308594 253.257813 169.765625 254.425781 170.132813 C 259.429688 171.695313 265.765625 171.289063 270.507813 168.945313 C 273.339844 167.542969 274.109375 166.433594 275.691406 164.332031 C 276.800781 162.851563 278.257813 159.910156 278.589844 157.28125 "/>
<path style=" stroke:none;fill-rule:evenodd;fill:rgb(0%,0%,0%);fill-opacity:1;" d="M 316.578125 145.433594 C 316.761719 142.722656 318.257813 139.238281 320.203125 137.660156 C 320.25 137.625 320.316406 137.574219 320.359375 137.539063 C 320.40625 137.5 320.472656 137.449219 320.515625 137.414063 C 325.023438 133.894531 331.460938 133.972656 335.253906 138.132813 C 335.5625 138.472656 335.71875 138.53125 335.984375 138.792969 C 337.433594 140.234375 338.636719 143.566406 338.78125 145.480469 Z M 338.691406 157.484375 C 337.789063 158.722656 337.414063 160.125 336.660156 160.996094 C 335.988281 161.765625 334.769531 162.867188 333.898438 163.3125 C 325.039063 167.84375 315.246094 159.96875 316.5625 152.074219 L 346.613281 152.082031 C 346.480469 144.777344 345.246094 138.789063 340.867188 133.363281 C 340.066406 132.371094 339.296875 132.058594 338.136719 131.199219 C 334.089844 128.191406 327.273438 127.5625 322.53125 128.992188 C 318.265625 130.28125 316.125 132.085938 313.226563 135.292969 L 312.308594 136.609375 C 312.277344 136.660156 312.230469 136.730469 312.199219 136.78125 C 310.699219 139.144531 309.738281 141.136719 309.195313 144.484375 C 308.203125 150.609375 309.023438 159.152344 313.027344 164.050781 C 313.9375 165.164063 314.25 165.917969 315.269531 166.6875 C 315.617188 166.949219 315.796875 167.042969 316.121094 167.289063 C 324.46875 173.625 342.609375 173.355469 345.785156 157.371094 Z M 338.691406 157.484375 "/>
<path style=" stroke:none;fill-rule:evenodd;fill:rgb(0%,0%,0%);fill-opacity:1;" d="M 115.40625 169.953125 C 115.476563 162.488281 115.382813 155.019531 115.425781 147.554688 C 115.445313 144.246094 116.316406 140.664063 118.21875 138.714844 C 118.660156 138.261719 119.128906 137.664063 119.570313 137.253906 C 122.429688 134.609375 129.621094 133.425781 133.480469 137.949219 C 135.328125 140.113281 134.890625 144.960938 134.890625 147.84375 C 134.890625 154.789063 134.460938 163.226563 134.929688 170.082031 L 142.058594 170.007813 C 142.191406 163.917969 142.0625 157.667969 142.0625 151.5625 C 142.0625 143.277344 143.398438 135.816406 137.398438 130.882813 C 135.089844 128.980469 131.703125 128.390625 128.492188 128.269531 C 123.9375 128.097656 121.210938 129.265625 117.871094 131.5 C 117.191406 131.953125 117.132813 131.882813 116.617188 132.53125 C 115.734375 133.644531 116.546875 133.070313 115.421875 134.058594 L 115.402344 113.964844 L 108.273438 114.007813 L 108.355469 170.085938 Z M 115.40625 169.953125 "/>
<path style=" stroke:none;fill-rule:evenodd;fill:rgb(0%,0%,0%);fill-opacity:1;" d="M 204.648438 91.964844 C 204.355469 88.390625 204.570313 84.007813 204.570313 80.34375 C 204.570313 72.671875 203.5625 66.386719 207.128906 60.59375 C 207.746094 59.59375 209.132813 58.652344 210.261719 58.078125 C 212.84375 56.761719 216.800781 56.34375 219.375 57.289063 C 224.386719 59.128906 223.804688 64.804688 223.804688 69.476563 C 223.804688 77.003906 223.835938 84.542969 223.800781 92.074219 L 231.3125 92.035156 C 230.90625 86.105469 231.246094 78.96875 231.246094 72.910156 C 231.246094 66.453125 231.886719 60.335938 228.726563 55.066406 C 228.59375 54.84375 228.390625 54.535156 228.261719 54.347656 C 225.25 49.910156 214.101563 48.65625 208.589844 52.332031 C 207.609375 52.984375 204.210938 55.273438 204.207031 56.625 L 204.210938 51.140625 L 197.183594 51.054688 L 197.167969 92.074219 Z M 204.648438 91.964844 "/>
<path style=" stroke:none;fill-rule:evenodd;fill:rgb(0%,0%,0%);fill-opacity:1;" d="M 147.765625 85.539063 C 137.96875 85.804688 137.820313 84.808594 137.824219 76.339844 L 137.890625 57.707031 L 147.8125 57.742188 L 147.738281 51.152344 L 137.820313 51.085938 L 137.796875 39.054688 L 130.492188 39.1875 C 130.292969 50.839844 130.476563 62.667969 130.476563 74.339844 C 130.476563 79.367188 129.730469 85.597656 133.164063 89.414063 L 133.78125 89.953125 C 137.902344 93.125 142.894531 92.457031 147.816406 92.550781 Z M 147.765625 85.539063 "/>
<path style=" stroke:none;fill-rule:evenodd;fill:rgb(0%,0%,0%);fill-opacity:1;" d="M 237.863281 163.746094 C 229.761719 163.183594 228.003906 164.699219 228.011719 154.421875 C 228.011719 151.617188 227.675781 137.234375 228.226563 135.796875 L 238.011719 135.648438 L 237.929688 129.269531 L 228.023438 129.25 L 227.980469 117.261719 L 220.953125 117.257813 C 220.519531 118.410156 220.25 156.078125 220.882813 161.125 C 221.246094 164.011719 222.496094 166.75 224.742188 168.574219 C 225.976563 169.574219 227.960938 170.121094 229.605469 170.402344 C 231.648438 170.746094 236.097656 170.925781 238.007813 170.511719 Z M 237.863281 163.746094 "/>
<path style=" stroke:none;fill-rule:evenodd;fill:rgb(0%,0%,0%);fill-opacity:1;" d="M 293.496094 170.121094 C 295.121094 163.859375 290.851563 146.765625 297.195313 139.78125 C 299.808594 136.90625 304 136.183594 308.132813 136.023438 L 308.144531 128.320313 C 304.824219 127.894531 301.175781 128.945313 298.535156 130.542969 C 297.449219 131.203125 297.804688 131.023438 297 131.878906 C 296.746094 132.148438 296.511719 132.390625 296.285156 132.609375 C 296.226563 132.667969 296.050781 132.832031 295.988281 132.890625 C 295.945313 132.929688 295.882813 132.984375 295.839844 133.023438 L 294.308594 134.957031 C 293.699219 135.867188 293.5 136.066406 293.222656 136.695313 L 293.140625 129.242188 L 286.371094 129.273438 C 286.011719 132.402344 286.109375 168.863281 286.449219 170.070313 Z M 293.496094 170.121094 "/>
<path style=" stroke:none;fill-rule:evenodd;fill:rgb(0%,0%,0%);fill-opacity:1;" d="M 200.242188 170.132813 C 201.230469 166.460938 199.625 151.957031 200.929688 146.113281 C 202.566406 138.78125 207.257813 136.144531 214.914063 136.0625 L 214.882813 128.355469 C 211.644531 127.875 207.699219 128.933594 205.292969 130.566406 L 202.273438 133.28125 C 201.4375 134.050781 200.535156 135.515625 199.941406 136.664063 L 199.910156 129.226563 L 192.953125 129.203125 L 193.039063 169.867188 C 194.855469 170.632813 198.082031 170.003906 200.242188 170.132813 "/>
<path style=" stroke:none;fill-rule:evenodd;fill:rgb(0%,0%,0%);fill-opacity:1;" d="M 335.617188 91.785156 C 336.445313 87.363281 334.980469 74.40625 336.292969 68.089844 C 337.851563 60.578125 342.585938 58.097656 350.320313 57.949219 L 350.359375 50.152344 C 349.207031 50.109375 348.15625 50.105469 347.019531 50.253906 C 341.703125 50.929688 338.625 53.214844 336.082031 57.429688 L 335.308594 58.703125 L 335.285156 51.144531 L 328.46875 51.253906 L 328.570313 91.933594 Z M 335.617188 91.785156 "/>
</g>
</svg>
